<svg width="25" height="21" viewBox="0 0 25 21" fill="none" xmlns="http://www.w3.org/2000/svg">
<g clip-path="url(#clip0)">
<path fill-rule="evenodd" clip-rule="evenodd" d="M20.8312 12.6461C20.8312 13.1114 20.3756 13.4891 19.8142 13.4891C19.2529 13.4891 18.7973 13.1114 18.7973 12.6461C18.7973 12.1807 19.2529 11.803 19.8142 11.803C20.3756 11.803 20.8312 12.1807 20.8312 12.6461ZM17.7803 12.6461C17.7803 13.1114 17.3247 13.4891 16.7634 13.4891C16.202 13.4891 15.7464 13.1114 15.7464 12.6461C15.7464 12.1807 16.202 11.803 16.7634 11.803C17.3247 11.803 17.7803 12.1807 17.7803 12.6461ZM14.7295 12.6461C14.7295 13.1114 14.2739 13.4891 13.7125 13.4891C13.1512 13.4891 12.6956 13.1114 12.6956 12.6461C12.6956 12.1807 13.1512 11.803 13.7125 11.803C14.2739 11.803 14.7295 12.1807 14.7295 12.6461ZM20.2363 16.816C19.2193 17.0318 18.2135 17.2223 16.8559 17.2223C13.3322 17.2223 9.64473 15.4814 9.64473 12.6503C9.64473 10.0131 12.838 7.86825 16.7634 7.86825C20.6725 7.86825 23.882 10.0114 23.882 12.6503C23.882 13.9916 23.2251 14.7808 22.3759 15.6238L23.2291 17.8884L20.2363 16.816ZM6.63659 13.9705L2.1732 15.569L3.45049 12.1866C2.31049 11.056 1.50914 9.93973 1.50914 8.22488C1.50914 4.61898 5.84337 1.68586 11.1702 1.68586C16.2732 1.68586 20.4529 4.3787 20.7976 7.77467C19.5874 7.29748 18.2034 7.02516 16.7634 7.02516C12.4932 7.02516 8.62778 9.38329 8.62778 12.6503C8.62778 13.2505 8.77727 13.8306 9.04575 14.3778C8.07659 14.2715 7.47354 14.1484 6.63659 13.9705ZM24.899 12.6503C24.899 10.8191 23.6796 9.26525 21.8461 8.25776L21.8481 8.22488C21.8481 3.93692 16.7756 0.842773 11.1702 0.842773C5.53015 0.842773 0.492188 3.96052 0.492188 8.22488C0.492188 9.73739 1.14914 11.2229 2.31354 12.3746L0.539984 17.0723L6.721 14.8592C7.71965 15.0725 8.68575 15.2023 9.61931 15.2714C10.9586 16.918 13.561 18.0654 16.8559 18.0654C17.8922 18.0654 18.9966 17.9516 20.1529 17.7046L24.8624 19.3908L23.5118 15.8119C24.3976 14.9334 24.899 13.8019 24.899 12.6503Z" fill="#8B8B8B"/>
</g>
<defs>
<clipPath id="clip0">
<rect width="24.4068" height="20.2342" fill="white" transform="translate(0.492188)"/>
</clipPath>
</defs>
</svg>
