<svg width="25" height="21" viewBox="0 0 25 21" fill="none" xmlns="http://www.w3.org/2000/svg">
<g clip-path="url(#clip0)">
<path d="M12.2186 5.902C17.0502 5.902 20.4183 8.44139 21.8837 9.81057C20.459 11.3593 17.0908 14.3329 12.2186 14.3329C7.72373 14.3329 4.15424 11.3517 2.58 9.77432C4.09831 8.38575 7.47864 5.902 12.2186 5.902ZM12.2186 4.21582C4.52136 4.21582 0 9.73891 0 9.73891C0 9.73891 4.91695 16.0191 12.2186 16.0191C20.0827 16.0191 24.4068 9.73891 24.4068 9.73891C24.4068 9.73891 20.0431 4.21582 12.2186 4.21582ZM12.2034 8.43128C13.3251 8.43128 14.2373 9.18753 14.2373 10.1175C14.2373 11.0474 13.3251 11.8036 12.2034 11.8036C11.0817 11.8036 10.1695 11.0474 10.1695 10.1175C10.1695 9.18753 11.0817 8.43128 12.2034 8.43128ZM12.2034 6.74509C9.95695 6.74509 8.13559 8.25591 8.13559 10.1175C8.13559 11.9798 9.95695 13.4898 12.2034 13.4898C14.4498 13.4898 16.2712 11.9798 16.2712 10.1175C16.2712 8.25591 14.4498 6.74509 12.2034 6.74509Z" fill="#8B8B8B"/>
</g>
<defs>
<clipPath id="clip0">
<rect width="24.4068" height="20.2342" fill="white"/>
</clipPath>
</defs>
</svg>
