<svg width="24" height="24" viewBox="0 0 24 24" fill="none" xmlns="http://www.w3.org/2000/svg">
<g clip-path="url(#clip0)">
<path d="M19.604 2.56152L16.258 5.69852C14.988 5.27052 13.572 4.99952 12.015 4.99952C4.446 4.99952 0 11.5505 0 11.5505C0 11.5505 1.928 14.5015 5.146 16.6885L2.235 19.5975L3.649 21.0115L21.019 3.97652L19.604 2.56152ZM13.588 8.34052C10.3 6.88752 6.907 10.2485 8.323 13.5465L6.597 15.2535C4.783 14.0935 3.372 12.6035 2.537 11.5935C4.03 9.94552 7.354 6.99952 12.015 6.99952C12.942 6.99952 13.811 7.11852 14.625 7.31452L13.588 8.34052ZM10.705 15.7715L15.795 10.7785C16.812 13.8895 13.792 16.8455 10.705 15.7715ZM24 11.5505C24 11.5505 19.748 18.9995 12.015 18.9995C10.636 18.9995 9.353 18.7085 8.164 18.2625L9.778 16.6795C10.493 16.8725 11.236 16.9995 12.015 16.9995C16.806 16.9995 20.119 13.4725 21.519 11.6355C20.79 10.8135 19.563 9.64552 17.932 8.68352L19.421 7.22352C22.403 9.12352 24 11.5505 24 11.5505Z" fill="#8B8B8B"/>
</g>
<defs>
<clipPath id="clip0">
<rect width="24" height="24" fill="white"/>
</clipPath>
</defs>
</svg>
