<svg width="25" height="24" viewBox="0 0 25 24" fill="none" xmlns="http://www.w3.org/2000/svg">
<g clip-path="url(#clip0)">
<path d="M12.8984 9.22892C13.1324 8.10892 14.4454 2.99992 18.2804 2.99992C20.5004 2.99992 22.8984 4.55092 22.8984 8.00292C22.8984 11.9099 19.2714 16.4729 12.8984 20.6319C6.52544 16.4729 2.89844 11.9099 2.89844 8.00292C2.89844 4.51892 5.26744 2.99792 7.47544 2.99792C11.3984 2.99792 12.6204 8.12392 12.8984 9.22892ZM0.898438 8.00292C0.898438 12.0709 3.95844 17.4839 12.8984 22.9999C21.8384 17.4839 24.8984 12.0709 24.8984 8.00292C24.8984 0.0409231 15.2504 -1.02508 12.8984 4.26592C10.5604 -0.996078 0.898438 -0.00407696 0.898438 8.00292Z" fill="#8B8B8B"/>
</g>
<defs>
<clipPath id="clip0">
<rect width="24" height="24" fill="white" transform="translate(0.898438)"/>
</clipPath>
</defs>
</svg>
