<svg width="30" height="30" viewBox="0 0 30 30" fill="none" xmlns="http://www.w3.org/2000/svg">
<path d="M23.75 2.5C23.75 1.12 22.63 0 21.25 0H8.75C7.37 0 6.25 1.12 6.25 2.5V27.5C6.25 28.88 7.37 30 8.75 30H21.25C22.63 30 23.75 28.88 23.75 27.5V2.5ZM13.125 2.5H16.875C17.22 2.5 17.5 2.78 17.5 3.125C17.5 3.47 17.22 3.75 16.875 3.75H13.125C12.78 3.75 12.5 3.47 12.5 3.125C12.5 2.78 12.78 2.5 13.125 2.5ZM15 27.5C14.3088 27.5 13.75 26.94 13.75 26.25C13.75 25.56 14.3088 25 15 25C15.69 25 16.2488 25.56 16.2488 26.25C16.2488 26.94 15.69 27.5 15 27.5ZM21.25 23.75H8.75V6.22H21.25V23.75Z" fill="black"/>
</svg>
