<svg width="25" height="21" viewBox="0 0 25 21" fill="none" xmlns="http://www.w3.org/2000/svg">
<g clip-path="url(#clip0)">
<path d="M16.2338 7.43101C17.0555 4.66314 17.507 0 13.9996 0C12.107 0 11.6097 1.40628 11.1185 2.80665C9.11414 8.52956 5.71448 8.99663 2.57617 9.33471V17.7049C6.13855 17.7049 8.25482 18.3195 10.8836 19.2579C12.1619 19.714 13.9884 20.2342 16.3101 20.2342C18.8911 20.2342 20.6779 19.3936 21.404 17.1266C21.9124 15.5441 22.9152 11.0141 22.9152 10.1711C22.9152 8.7808 21.7274 8.10885 20.2772 8.05742C19.0467 8.01443 17.3585 7.82389 16.2338 7.43101ZM20.0148 11.074L18.5972 11.2148C18.5972 11.2148 17.9779 12.1498 18.7406 12.1548C18.7406 12.1548 18.945 12.1633 19.8277 12.1321C20.928 12.0933 20.8965 13.3706 19.8318 13.4498L18.0409 13.5333C17.2945 13.6126 17.3738 14.5475 18.1843 14.5214C18.1843 14.5214 18.8819 14.5071 19.3467 14.4868C20.4328 14.4396 20.3799 15.6916 19.3874 15.7945C18.9562 15.8392 17.6128 15.8914 17.6128 15.8914C16.788 15.9521 16.8948 16.9326 17.7236 16.8534L18.5077 16.8273C19.3436 16.7649 19.5277 17.5228 18.2108 18.2276C16.6172 18.9704 13.4463 18.3381 11.686 17.71C9.41007 16.8964 7.1738 16.0794 4.61007 16.0187V10.9602C7.92838 10.3287 11.0463 9.05986 13.0721 3.2771C13.9853 0.670258 14.7796 1.64909 14.7796 3.76103C14.7796 5.50707 14.2813 6.95297 13.843 8.42585C14.9219 8.88365 17.2711 9.60787 20.0667 9.73771C21.1396 9.78745 21.1091 10.9644 20.0148 11.074Z" fill="#8B8B8B"/>
</g>
<defs>
<clipPath id="clip0">
<rect width="24.4068" height="20.2342" fill="white" transform="translate(0.542969)"/>
</clipPath>
</defs>
</svg>
