<svg width="12" height="38" viewBox="0 0 12 38" fill="none" xmlns="http://www.w3.org/2000/svg">
<path fill-rule="evenodd" clip-rule="evenodd" d="M6 26.3337C9.036 26.3337 11.5 28.7977 11.5 31.8337C11.5 34.8697 9.036 37.3337 6 37.3337C2.964 37.3337 0.5 34.8697 0.5 31.8337C0.5 28.7977 2.964 26.3337 6 26.3337ZM6 28.167C8.024 28.167 9.66667 29.8097 9.66667 31.8337C9.66667 33.8577 8.024 35.5003 6 35.5003C3.976 35.5003 2.33333 33.8577 2.33333 31.8337C2.33333 29.8097 3.976 28.167 6 28.167ZM6 13.5003C9.036 13.5003 11.5 15.9643 11.5 19.0003C11.5 22.0363 9.036 24.5003 6 24.5003C2.964 24.5003 0.5 22.0363 0.5 19.0003C0.5 15.9643 2.964 13.5003 6 13.5003ZM6 15.3337C8.024 15.3337 9.66667 16.9763 9.66667 19.0003C9.66667 21.0243 8.024 22.667 6 22.667C3.976 22.667 2.33333 21.0243 2.33333 19.0003C2.33333 16.9763 3.976 15.3337 6 15.3337ZM6 0.666992C9.036 0.666992 11.5 3.13099 11.5 6.16699C11.5 9.20299 9.036 11.667 6 11.667C2.964 11.667 0.5 9.20299 0.5 6.16699C0.5 3.13099 2.964 0.666992 6 0.666992ZM6 2.50033C8.024 2.50033 9.66667 4.14299 9.66667 6.16699C9.66667 8.19099 8.024 9.83366 6 9.83366C3.976 9.83366 2.33333 8.19099 2.33333 6.16699C2.33333 4.14299 3.976 2.50033 6 2.50033Z" fill="white"/>
</svg>
