<svg width="20" height="19" viewBox="0 0 20 19" fill="none" xmlns="http://www.w3.org/2000/svg">
<path d="M7.62083 14.4796C3.41917 14.4796 0 11.2322 0 7.23979C0 3.24742 3.41917 0 7.62083 0C11.8225 0 15.2417 3.24821 15.2417 7.23979C15.2417 11.2314 11.8233 14.4796 7.62083 14.4796ZM7.62083 2.47237C4.85333 2.47237 2.6025 4.61146 2.6025 7.23979C2.6025 9.86813 4.85417 12.0072 7.62083 12.0072C10.3875 12.0072 12.64 9.86813 12.64 7.23979C12.64 4.61146 10.3883 2.47237 7.62083 2.47237ZM15.34 12.3231C14.6592 13.2541 13.7967 14.0553 12.8017 14.683L17.345 19L19.8567 16.6147L15.34 12.3231Z" fill="black"/>
</svg>
