<svg width="21" height="20" viewBox="0 0 21 20" fill="none" xmlns="http://www.w3.org/2000/svg">
<g clip-path="url(#clip0)">
<g clip-path="url(#clip1)">
<path d="M4.2487 7.5C5.62703 7.5 6.7487 8.62167 6.7487 10C6.7487 11.3783 5.62703 12.5 4.2487 12.5C2.87036 12.5 1.7487 11.3783 1.7487 10C1.7487 8.62167 2.87036 7.5 4.2487 7.5ZM4.2487 5.83333C1.94703 5.83333 0.0820312 7.69917 0.0820312 10C0.0820312 12.3008 1.94703 14.1667 4.2487 14.1667C6.55036 14.1667 8.41536 12.3008 8.41536 10C8.41536 7.69917 6.55036 5.83333 4.2487 5.83333ZM16.7487 13.3333C15.7779 13.3333 14.912 13.755 14.3029 14.4175L9.72953 11.9783C9.53786 12.5083 9.27203 13.0025 8.94286 13.4483L13.5162 15.8875C13.4562 16.1383 13.4154 16.3967 13.4154 16.6667C13.4154 18.5075 14.9079 20 16.7487 20C18.5895 20 20.082 18.5075 20.082 16.6667C20.082 14.8258 18.5895 13.3333 16.7487 13.3333ZM16.7487 18.3333C15.8295 18.3333 15.082 17.5858 15.082 16.6667C15.082 15.7475 15.8295 15 16.7487 15C17.6679 15 18.4154 15.7475 18.4154 16.6667C18.4154 17.5858 17.6679 18.3333 16.7487 18.3333ZM16.7487 0C14.9079 0 13.4154 1.4925 13.4154 3.33333C13.4154 3.60333 13.4562 3.86167 13.5162 4.1125L8.94286 6.55167C9.27203 6.99833 9.53703 7.49167 9.72953 8.02167L14.3029 5.5825C14.912 6.245 15.7779 6.66667 16.7487 6.66667C18.5895 6.66667 20.082 5.17417 20.082 3.33333C20.082 1.4925 18.5895 0 16.7487 0ZM16.7487 5C15.8295 5 15.082 4.2525 15.082 3.33333C15.082 2.41417 15.8295 1.66667 16.7487 1.66667C17.6679 1.66667 18.4154 2.41417 18.4154 3.33333C18.4154 4.2525 17.6679 5 16.7487 5Z" fill="#8B8B8B"/>
</g>
</g>
<defs>
<clipPath id="clip0">
<rect width="20" height="20" fill="white" transform="translate(0.0859375)"/>
</clipPath>
<clipPath id="clip1">
<rect width="20" height="20" fill="white" transform="translate(0.0820312)"/>
</clipPath>
</defs>
</svg>
