<svg width="45" height="45" viewBox="0 0 45 45" fill="none" xmlns="http://www.w3.org/2000/svg">
<g clip-path="url(#clip0)">
<path d="M34.755 14.1656C32.5275 13.6931 26.1187 12.4706 24.375 12.1256V5.54062C24.375 2.48625 21.8512 0 18.75 0C15.6488 0 13.125 2.48625 13.125 5.54062V19.5225C12.0863 18.8925 10.8975 18.3581 9.67875 18.1819C6.2625 17.6906 3.75 19.9444 3.75 22.8656C3.75 24.375 4.43063 25.89 5.66625 27.1237C13.1137 34.5713 16.3313 36.7331 17.0269 45H35.625V41.7225C35.625 32.0588 41.25 30.4144 41.25 22.9181C41.25 18.3281 39.2606 15.1237 34.755 14.1656ZM35.4244 29.2069C33.885 31.9875 31.9781 35.43 31.8788 41.25H20.385C19.0237 34.0875 13.2413 29.4037 8.3175 24.4706C7.0275 23.1844 7.58062 21.9019 9.14625 21.8963C11.5144 21.885 14.8837 25.4288 16.875 27.9056V5.54062C16.875 4.57125 17.7338 3.75 18.75 3.75C19.7663 3.75 20.625 4.57125 20.625 5.54062V18.5681C20.625 19.1588 21.105 19.6388 21.6975 19.6388C22.2862 19.6388 22.7663 19.1588 22.7663 18.5681V17.49C22.7663 16.4888 23.685 15.7312 24.6675 15.9281C25.4137 16.0763 25.9538 16.7306 25.9538 17.49V19.8769C25.9538 20.4675 26.4338 20.9475 27.0244 20.9475C27.615 20.9475 28.095 20.4675 28.095 19.8769V18.3206C28.095 17.325 29.0081 16.5731 29.985 16.7681C30.7275 16.9144 31.2638 17.5631 31.2638 18.3206V21.195C31.2638 21.7856 31.7438 22.2656 32.3344 22.2656C32.925 22.2656 33.405 21.7856 33.405 21.195V19.485C33.405 18.5044 34.4269 17.8594 35.3137 18.2738C36.5231 18.8456 37.5 20.0212 37.5 22.9181C37.5 25.4587 36.6281 27.03 35.4244 29.2069Z" fill="white"/>
</g>
<defs>
<clipPath id="clip0">
<rect width="45" height="45" fill="white"/>
</clipPath>
</defs>
</svg>
