<svg width="30" height="30" viewBox="0 0 30 30" fill="none" xmlns="http://www.w3.org/2000/svg">
<path d="M12.0025 4.625C10.56 7.04625 11.2087 11.1588 13.7825 15.9062C14.945 18.0463 14.6537 19.6813 14.205 20.675C12.9775 23.3975 9.61125 24.1737 6.04875 24.995C3.59375 25.5625 3.75 26.0825 3.75 30H1.25625L1.25 28.4488C1.25 25.2988 1.49875 23.48 5.2225 22.62C9.42875 21.6488 13.5825 20.7788 11.585 17.0975C5.66875 6.18625 9.8975 0 16.25 0C20.4012 0 23.7125 2.64625 23.7125 7.70875C23.7125 12.1525 21.2762 16.25 20.7337 17.5H18.09C18.58 15.58 21.2137 12.0425 21.2137 7.6975C21.2137 1.25625 13.88 1.46625 12.0025 4.625ZM28.75 23.75H18.75V26.25H28.75V23.75Z" fill="white"/>
</svg>
