<svg width="30" height="30" viewBox="0 0 30 30" fill="none" xmlns="http://www.w3.org/2000/svg">
<g clip-path="url(#clip0)">
<path d="M13.0025 4.625C11.56 7.04625 12.2087 11.1588 14.7825 15.9062C15.945 18.0463 15.6538 19.6813 15.205 20.675C13.9775 23.3975 10.6112 24.1737 7.04875 24.995C4.59375 25.5625 4.75 26.0825 4.75 30H2.25625L2.25 28.4488C2.25 25.2988 2.49875 23.48 6.2225 22.62C10.4288 21.6488 14.5825 20.7788 12.585 17.0975C6.66875 6.18625 10.8975 0 17.25 0C21.4013 0 24.7125 2.64625 24.7125 7.70875C24.7125 12.1525 22.2762 16.25 21.7337 17.5H19.09C19.58 15.58 22.2138 12.0425 22.2138 7.6975C22.2138 1.25625 14.88 1.46625 13.0025 4.625ZM29.75 23.75H26V20H23.5V23.75H19.75V26.25H23.5V30H26V26.25H29.75V23.75Z" fill="black"/>
</g>
<defs>
<clipPath id="clip0">
<rect width="30" height="30" fill="white"/>
</clipPath>
</defs>
</svg>
