<svg width="100" height="100" viewBox="0 0 100 100" fill="none" xmlns="http://www.w3.org/2000/svg">
<path d="M9.98333 50.0002H0V41.6668H9.98333V50.0002ZM41.6667 23.0918V8.3335H33.3333V23.0918H41.6667ZM21.6958 26.7418L12.7125 17.7585L6.82083 23.6502L15.8042 32.6335L21.6958 26.7418ZM61.1167 16.7585L52.3042 25.5668L58.1958 31.4585L67.0083 22.6502L61.1167 16.7585ZM12.3667 62.2043L3.20833 70.2002L8.6375 76.521L17.7958 68.5252L12.3667 62.2043ZM100 73.8418C100 83.6835 91.875 91.6668 81.8583 91.6668H38.975C28.9583 91.6668 20.8333 83.6835 20.8333 73.8418C20.8333 70.6335 21.7125 67.6335 23.225 65.0377C19.2083 61.2585 16.6667 55.9543 16.6667 50.0002C16.6667 38.4918 25.9917 29.1668 37.5 29.1668C43.0375 29.1668 48.0125 31.3668 51.725 34.9002C54.4292 33.9002 57.35 33.3335 60.4167 33.3335C73.6292 33.3335 84.3875 43.5127 85.0875 56.3168C93.5625 57.8127 100 65.0877 100 73.8418ZM25 50.0002C25 53.5835 26.5417 56.7835 28.9792 59.0502C31 57.7335 33.2667 56.7543 35.7458 56.3168C36.1125 49.6085 39.2583 43.6418 44.0542 39.4585C42.1375 38.2585 39.925 37.5002 37.5 37.5002C30.6083 37.5002 25 43.1085 25 50.0002ZM91.6667 73.8418C91.6667 65.1918 83.4208 62.9335 77.1292 63.3752C78.0375 57.3793 76.1292 41.6668 60.4167 41.6668C44.2708 41.6668 43.4917 57.7252 43.7042 63.371C37.9333 63.021 29.1667 65.0168 29.1667 73.8418C29.1667 79.0752 33.5667 83.3335 38.975 83.3335H81.8542C87.2667 83.3335 91.6667 79.0752 91.6667 73.8418Z" fill="black"/>
</svg>
